<svg xmlns="http://www.w3.org/2000/svg" width="900" height="240" viewBox="0 0 900 240" role="img" aria-label="npm downloads per day, hand-drawn line chart">
 <title>pi-wake: npm downloads per day</title>
 <rect width="900" height="240" fill="transparent"/>
 <text x="46" y="24" font-family="'Comic Sans MS','Segoe Print','Chalkboard SE','Comic Neue',cursive" font-size="14.5" fill="#3b4249">npm downloads / day</text>
 <text x="884" y="24" text-anchor="end" font-family="'Comic Sans MS','Segoe Print','Chalkboard SE','Comic Neue',cursive" font-size="12" fill="#8b949e">total 1,346 · 40d</text>
 <path d="M 46.0 125.0 L 72.2 124.4 L 98.4 126.0 L 124.6 123.9 L 150.8 125.7 L 176.9 124.4 L 203.1 124.8 L 229.3 125.3 L 255.5 125.3 L 281.7 125.5 L 307.9 125.4 L 334.1 124.9 L 360.3 124.4 L 386.4 125.5 L 412.6 124.9 L 438.8 124.0 L 465.0 125.5 L 491.2 125.0 L 517.4 124.9 L 543.6 125.9 L 569.8 125.0 L 595.9 125.3 L 622.1 124.4 L 648.3 124.6 L 674.5 125.8 L 700.7 125.4 L 726.9 124.4 L 753.1 125.8 L 779.3 125.1 L 805.4 125.5 L 831.6 125.3 L 857.8 124.2 L 884.0 125.0" fill="none" stroke="#d0d7de" stroke-width="1.1" stroke-dasharray="5 6"/>
 <text x="40" y="129" text-anchor="end" font-family="'Comic Sans MS','Segoe Print','Chalkboard SE','Comic Neue',cursive" font-size="10.5" fill="#8b949e">161</text>
 <text x="40" y="50" text-anchor="end" font-family="'Comic Sans MS','Segoe Print','Chalkboard SE','Comic Neue',cursive" font-size="10.5" fill="#8b949e">321</text>
 <path d="M 46.0 88.8 L 58.6 109.3 L 67.5 131.6 L 78.1 162.0 L 89.0 192.2 L 99.7 193.0 L 110.5 194.2 L 116.0 169.7 L 119.1 145.0 L 122.2 120.2 L 122.8 95.1 L 127.8 70.6 L 131.9 46.0 L 137.3 69.8 L 140.6 93.9 L 141.9 118.2 L 145.5 142.3 L 150.7 166.1 L 153.4 190.2 L 159.6 167.1 L 166.4 144.2 L 174.9 121.8 L 182.9 145.3 L 187.5 169.9 L 196.4 193.2 L 206.9 199.0 L 217.9 204.0 L 229.0 199.9 L 239.4 194.2 L 250.1 192.8 L 260.9 193.2 L 272.0 194.5 L 282.4 198.6 L 292.6 203.2 L 303.8 204.0 L 314.6 204.8 L 325.3 204.0 L 336.2 200.9 L 346.8 197.1 L 357.8 197.8 L 368.3 201.0 L 379.1 202.4 L 389.8 201.0 L 400.4 203.4 L 411.3 202.5 L 421.9 199.1 L 432.8 196.6 L 444.5 167.9 L 454.3 138.5 L 463.2 159.8 L 466.6 182.8 L 475.7 204.0 L 486.4 201.7 L 497.2 200.1 L 508.0 197.6 L 518.7 195.1 L 529.7 194.9 L 540.2 198.1 L 550.7 201.0 L 561.7 201.0 L 572.4 199.2 L 583.2 198.6 L 593.9 197.4 L 604.7 198.1 L 615.3 195.9 L 626.2 196.6 L 637.0 198.3 L 647.6 201.0 L 658.4 201.1 L 669.1 201.5 L 679.8 199.6 L 690.6 198.6 L 701.5 198.2 L 712.1 201.0 L 722.7 198.2 L 733.6 198.1 L 744.7 197.8 L 755.1 201.5 L 765.9 202.2 L 776.6 200.1 L 787.3 200.3 L 798.1 199.6 L 808.7 202.1 L 819.5 203.0 L 830.3 202.1 L 841.0 200.6 L 851.7 202.7 L 862.5 204.0 L 873.3 204.1 L 884.0 204.0 L 884.0 204 L 46.0 204 Z" fill="#4c8bf5" fill-opacity="0.10" stroke="none"/>
 <path d="M 46.0 88.8 L 54.6 111.3 L 67.5 131.6 L 78.9 161.7 L 89.0 192.2 L 99.6 195.0 L 110.5 194.2 L 114.3 169.5 L 117.0 144.7 L 120.8 120.0 L 123.3 95.2 L 128.9 70.8 L 131.9 46.0 L 134.4 70.2 L 136.9 94.4 L 141.6 118.3 L 145.4 142.3 L 150.6 166.1 L 153.4 190.2 L 161.9 167.8 L 169.7 145.2 L 174.9 121.8 L 180.8 146.0 L 190.4 169.0 L 196.4 193.2 L 208.3 196.3 L 217.9 204.0 L 229.5 201.0 L 239.4 194.2 L 250.1 192.7 L 260.9 193.2 L 271.6 195.9 L 282.4 198.6 L 292.6 203.4 L 303.8 204.0 L 314.6 206.1 L 325.3 204.0 L 335.8 199.7 L 346.8 197.1 L 357.5 199.4 L 368.3 201.0 L 379.1 199.4 L 389.8 201.0 L 400.5 202.1 L 411.3 202.5 L 421.9 199.0 L 432.8 196.6 L 442.4 167.2 L 454.3 138.5 L 463.4 159.7 L 468.0 182.4 L 475.7 204.0 L 486.1 199.8 L 497.2 200.1 L 508.1 198.0 L 518.7 195.1 L 529.3 197.5 L 540.2 198.1 L 550.8 200.6 L 561.7 201.0 L 572.3 198.9 L 583.2 198.6 L 593.9 197.6 L 604.7 198.1 L 615.3 196.4 L 626.2 196.6 L 637.3 196.7 L 647.6 201.0 L 658.3 203.8 L 669.1 201.5 L 679.9 200.5 L 690.6 198.6 L 701.5 198.8 L 712.1 201.0 L 723.1 201.1 L 733.6 198.1 L 744.2 200.4 L 755.1 201.5 L 765.9 201.5 L 776.6 200.1 L 787.4 202.2 L 798.1 199.6 L 808.9 200.4 L 819.5 203.0 L 830.4 202.9 L 841.0 200.6 L 851.6 203.6 L 862.5 204.0 L 873.3 203.2 L 884.0 204.0" fill="none" stroke="#4c8bf5" stroke-width="1.3" stroke-opacity="0.45" stroke-linecap="round" stroke-linejoin="round"/>
 <path d="M 46.0 88.8 L 58.6 109.3 L 67.5 131.6 L 78.1 162.0 L 89.0 192.2 L 99.7 193.0 L 110.5 194.2 L 116.0 169.7 L 119.1 145.0 L 122.2 120.2 L 122.8 95.1 L 127.8 70.6 L 131.9 46.0 L 137.3 69.8 L 140.6 93.9 L 141.9 118.2 L 145.5 142.3 L 150.7 166.1 L 153.4 190.2 L 159.6 167.1 L 166.4 144.2 L 174.9 121.8 L 182.9 145.3 L 187.5 169.9 L 196.4 193.2 L 206.9 199.0 L 217.9 204.0 L 229.0 199.9 L 239.4 194.2 L 250.1 192.8 L 260.9 193.2 L 272.0 194.5 L 282.4 198.6 L 292.6 203.2 L 303.8 204.0 L 314.6 204.8 L 325.3 204.0 L 336.2 200.9 L 346.8 197.1 L 357.8 197.8 L 368.3 201.0 L 379.1 202.4 L 389.8 201.0 L 400.4 203.4 L 411.3 202.5 L 421.9 199.1 L 432.8 196.6 L 444.5 167.9 L 454.3 138.5 L 463.2 159.8 L 466.6 182.8 L 475.7 204.0 L 486.4 201.7 L 497.2 200.1 L 508.0 197.6 L 518.7 195.1 L 529.7 194.9 L 540.2 198.1 L 550.7 201.0 L 561.7 201.0 L 572.4 199.2 L 583.2 198.6 L 593.9 197.4 L 604.7 198.1 L 615.3 195.9 L 626.2 196.6 L 637.0 198.3 L 647.6 201.0 L 658.4 201.1 L 669.1 201.5 L 679.8 199.6 L 690.6 198.6 L 701.5 198.2 L 712.1 201.0 L 722.7 198.2 L 733.6 198.1 L 744.7 197.8 L 755.1 201.5 L 765.9 202.2 L 776.6 200.1 L 787.3 200.3 L 798.1 199.6 L 808.7 202.1 L 819.5 203.0 L 830.3 202.1 L 841.0 200.6 L 851.7 202.7 L 862.5 204.0 L 873.3 204.1 L 884.0 204.0" fill="none" stroke="#316dca" stroke-width="2.2" stroke-linecap="round" stroke-linejoin="round"/>
 <path d="M 46.0 38.0 L 45.2 62.4 L 46.5 86.9 L 44.6 111.3 L 46.1 135.7 L 44.8 160.1 L 46.4 184.6 L 46.0 209.0" fill="none" stroke="#8b949e" stroke-width="1.6" stroke-linecap="round"/>
 <path d="M 40.0 204.0 L 66.4 203.3 L 92.8 203.4 L 119.1 203.8 L 145.5 205.2 L 171.9 204.7 L 198.3 204.6 L 224.6 204.7 L 251.0 203.6 L 277.4 204.9 L 303.8 203.9 L 330.1 204.4 L 356.5 204.3 L 382.9 203.9 L 409.3 204.2 L 435.6 204.8 L 462.0 203.5 L 488.4 204.0 L 514.8 204.1 L 541.1 203.4 L 567.5 205.4 L 593.9 204.0 L 620.3 204.1 L 646.6 203.1 L 673.0 204.9 L 699.4 203.1 L 725.8 202.8 L 752.1 203.6 L 778.5 203.5 L 804.9 203.8 L 831.3 204.1 L 857.6 204.0 L 884.0 204.0" fill="none" stroke="#8b949e" stroke-width="1.6" stroke-linecap="round"/>
<circle cx="46.0" cy="88.8" r="2.6" fill="#316dca"><title>2026-08-26: 234</title></circle>
<circle cx="67.5" cy="131.6" r="2.6" fill="#316dca"><title>2026-08-27: 147</title></circle>
<circle cx="89.0" cy="192.2" r="2.6" fill="#316dca"><title>2026-08-28: 24</title></circle>
<circle cx="110.5" cy="194.2" r="2.6" fill="#316dca"><title>2026-08-29: 20</title></circle>
<circle cx="131.9" cy="46.0" r="2.6" fill="#316dca"><title>2026-08-30: 321</title></circle>
<circle cx="153.4" cy="190.2" r="2.6" fill="#316dca"><title>2026-08-31: 28</title></circle>
<circle cx="174.9" cy="121.8" r="2.6" fill="#316dca"><title>2026-09-01: 167</title></circle>
<circle cx="196.4" cy="193.2" r="2.6" fill="#316dca"><title>2026-09-02: 22</title></circle>
<circle cx="239.4" cy="194.2" r="2.6" fill="#316dca"><title>2026-09-04: 20</title></circle>
<circle cx="260.9" cy="193.2" r="2.6" fill="#316dca"><title>2026-09-05: 22</title></circle>
<circle cx="282.4" cy="198.6" r="2.6" fill="#316dca"><title>2026-09-06: 11</title></circle>
<circle cx="346.8" cy="197.1" r="2.6" fill="#316dca"><title>2026-09-09: 14</title></circle>
<circle cx="368.3" cy="201.0" r="2.6" fill="#316dca"><title>2026-09-10: 6</title></circle>
<circle cx="389.8" cy="201.0" r="2.6" fill="#316dca"><title>2026-09-11: 6</title></circle>
<circle cx="411.3" cy="202.5" r="2.6" fill="#316dca"><title>2026-09-12: 3</title></circle>
<circle cx="432.8" cy="196.6" r="2.6" fill="#316dca"><title>2026-09-13: 15</title></circle>
<circle cx="454.3" cy="138.5" r="2.6" fill="#316dca"><title>2026-09-14: 133</title></circle>
<circle cx="497.2" cy="200.1" r="2.6" fill="#316dca"><title>2026-09-16: 8</title></circle>
<circle cx="518.7" cy="195.1" r="2.6" fill="#316dca"><title>2026-09-17: 18</title></circle>
<circle cx="540.2" cy="198.1" r="2.6" fill="#316dca"><title>2026-09-18: 12</title></circle>
<circle cx="561.7" cy="201.0" r="2.6" fill="#316dca"><title>2026-09-19: 6</title></circle>
<circle cx="583.2" cy="198.6" r="2.6" fill="#316dca"><title>2026-09-20: 11</title></circle>
<circle cx="604.7" cy="198.1" r="2.6" fill="#316dca"><title>2026-09-21: 12</title></circle>
<circle cx="626.2" cy="196.6" r="2.6" fill="#316dca"><title>2026-09-22: 15</title></circle>
<circle cx="647.6" cy="201.0" r="2.6" fill="#316dca"><title>2026-09-23: 6</title></circle>
<circle cx="669.1" cy="201.5" r="2.6" fill="#316dca"><title>2026-09-24: 5</title></circle>
<circle cx="690.6" cy="198.6" r="2.6" fill="#316dca"><title>2026-09-25: 11</title></circle>
<circle cx="712.1" cy="201.0" r="2.6" fill="#316dca"><title>2026-09-26: 6</title></circle>
<circle cx="733.6" cy="198.1" r="2.6" fill="#316dca"><title>2026-09-27: 12</title></circle>
<circle cx="755.1" cy="201.5" r="2.6" fill="#316dca"><title>2026-09-28: 5</title></circle>
<circle cx="776.6" cy="200.1" r="2.6" fill="#316dca"><title>2026-09-29: 8</title></circle>
<circle cx="798.1" cy="199.6" r="2.6" fill="#316dca"><title>2026-09-30: 9</title></circle>
<circle cx="819.5" cy="203.0" r="2.6" fill="#316dca"><title>2026-10-01: 2</title></circle>
<circle cx="841.0" cy="200.6" r="2.6" fill="#316dca"><title>2026-10-02: 7</title></circle>
<path d="M 156.7 46.0 L 154.7 47.9 L 155.1 50.6 L 154.3 53.6 L 151.4 54.7 L 148.5 55.9 L 146.6 58.4 L 142.9 58.8 L 139.5 60.2 L 136.1 62.6 L 131.9 62.9 L 127.7 62.4 L 123.5 62.0 L 120.0 59.8 L 115.9 59.6 L 113.4 56.9 L 109.9 55.9 L 110.4 53.0 L 108.7 50.6 L 105.8 49.2 L 105.1 46.0 L 106.0 43.5 L 106.2 40.8 L 109.1 39.4 L 110.3 36.3 L 113.5 34.9 L 115.3 31.9 L 120.0 32.4 L 124.6 32.1 L 128.2 31.1 L 131.9 30.5 L 136.3 30.8 L 140.6 29.6 L 144.0 31.0 L 146.3 33.8 L 149.5 35.5 L 153.0 36.6 L 155.1 38.5 L 155.3 41.3 L 156.2 43.9 L 158.0 46.0 M 156.4 51.5 L 153.9 53.2 L 152.4 55.9 L 149.2 57.8 L 145.4 58.3 L 142.0 59.5 L 138.5 60.2 L 134.5 60.3 L 131.0 62.4 L 127.6 60.5 L 123.7 59.9 L 119.6 59.4 L 115.6 58.8 L 112.7 57.4 L 110.7 54.8 L 107.3 53.8 L 105.7 50.6 L 104.1 48.1 L 105.3 45.4 L 106.3 42.9 L 107.6 40.5 L 108.8 37.6 L 111.7 36.2 L 115.2 35.4 L 118.3 33.5 L 120.6 30.5 L 124.4 29.7 L 128.3 31.9 L 132.8 31.3 L 136.8 30.0 L 140.8 31.0 L 144.9 31.7 L 149.0 32.6 L 152.2 34.2 L 154.9 36.5 L 156.1 39.0 L 157.0 41.6 L 159.6 43.5 L 159.8 46.6 L 157.1 48.5 L 155.3 51.2" fill="none" stroke="#e78100" stroke-width="1.6" stroke-linecap="round"/>
 <path d="M 131.9 28.0 C 161.9 4.0, 177.9 6.0, 183.9 16.0" fill="none" stroke="#e78100" stroke-width="1.4" stroke-linecap="round"/>
 <text x="187.9" y="20.0" text-anchor="start" font-family="'Comic Sans MS','Segoe Print','Chalkboard SE','Comic Neue',cursive" font-size="12.5" fill="#e78100">321 on 08-30</text>
 <text x="46" y="230" font-family="'Comic Sans MS','Segoe Print','Chalkboard SE','Comic Neue',cursive" font-size="11" fill="#8b949e">2026-08-26</text>
 <text x="884" y="230" text-anchor="end" font-family="'Comic Sans MS','Segoe Print','Chalkboard SE','Comic Neue',cursive" font-size="11" fill="#8b949e">[object Object] · daily refresh</text>
</svg>
