<svg xmlns="http://www.w3.org/2000/svg" width="900" height="240" viewBox="0 0 900 240" role="img" aria-label="npm downloads per day, hand-drawn line chart">
 <title>pi-wake: npm downloads per day</title>
 <rect width="900" height="240" fill="transparent"/>
 <text x="46" y="24" font-family="'Comic Sans MS','Segoe Print','Chalkboard SE','Comic Neue',cursive" font-size="14.5" fill="#3b4249">npm downloads / day</text>
 <text x="884" y="24" text-anchor="end" font-family="'Comic Sans MS','Segoe Print','Chalkboard SE','Comic Neue',cursive" font-size="12" fill="#8b949e">total 1,285 · 34d</text>
 <path d="M 46.0 125.0 L 72.2 124.9 L 98.4 125.6 L 124.6 124.6 L 150.8 125.9 L 176.9 124.9 L 203.1 124.5 L 229.3 124.3 L 255.5 124.1 L 281.7 125.0 L 307.9 124.9 L 334.1 124.9 L 360.3 124.1 L 386.4 124.0 L 412.6 125.9 L 438.8 125.7 L 465.0 126.0 L 491.2 126.1 L 517.4 125.1 L 543.6 125.3 L 569.8 124.6 L 595.9 123.9 L 622.1 123.9 L 648.3 124.3 L 674.5 125.1 L 700.7 126.0 L 726.9 125.3 L 753.1 126.0 L 779.3 126.1 L 805.4 125.8 L 831.6 125.6 L 857.8 124.2 L 884.0 125.0" fill="none" stroke="#d0d7de" stroke-width="1.1" stroke-dasharray="5 6"/>
 <text x="40" y="129" text-anchor="end" font-family="'Comic Sans MS','Segoe Print','Chalkboard SE','Comic Neue',cursive" font-size="10.5" fill="#8b949e">161</text>
 <text x="40" y="50" text-anchor="end" font-family="'Comic Sans MS','Segoe Print','Chalkboard SE','Comic Neue',cursive" font-size="10.5" fill="#8b949e">321</text>
 <path d="M 46.0 88.8 L 58.2 110.5 L 71.4 131.6 L 81.0 151.3 L 89.2 171.6 L 96.8 192.2 L 109.4 194.2 L 122.2 194.2 L 125.6 169.3 L 130.9 144.8 L 133.3 119.8 L 140.3 95.6 L 143.3 70.7 L 147.6 46.0 L 150.0 70.4 L 154.2 94.4 L 161.2 118.0 L 163.5 142.3 L 167.8 166.4 L 173.0 190.2 L 182.7 167.9 L 188.5 144.1 L 198.4 121.8 L 206.6 145.7 L 217.0 168.8 L 223.8 193.2 L 235.7 200.4 L 249.2 204.0 L 262.5 200.7 L 274.5 194.2 L 287.2 192.8 L 299.9 193.2 L 312.8 195.0 L 325.3 198.6 L 337.9 202.0 L 350.7 204.0 L 363.4 203.2 L 376.1 204.0 L 389.2 202.0 L 401.5 197.1 L 414.0 200.3 L 426.9 201.0 L 439.6 200.9 L 452.3 201.0 L 465.1 199.9 L 477.7 202.5 L 490.7 200.8 L 503.1 196.6 L 515.8 167.6 L 528.5 138.5 L 538.1 159.9 L 543.6 182.9 L 553.9 204.0 L 566.3 200.0 L 579.3 200.1 L 592.2 200.6 L 604.7 204.0 L 617.4 201.1 L 630.1 198.1 L 643.0 197.8 L 655.5 201.0 L 668.3 201.5 L 680.8 198.6 L 693.6 200.2 L 706.2 198.1 L 718.9 196.5 L 731.6 196.6 L 744.6 197.6 L 757.0 201.0 L 769.7 203.2 L 782.4 201.5 L 795.1 199.6 L 807.8 198.6 L 820.5 199.7 L 833.2 201.0 L 846.1 201.0 L 858.6 204.0 L 871.3 205.3 L 884.0 204.0 L 884.0 204 L 46.0 204 Z" fill="#4c8bf5" fill-opacity="0.10" stroke="none"/>
 <path d="M 46.0 88.8 L 57.2 111.1 L 71.4 131.6 L 80.4 151.6 L 88.2 172.0 L 96.8 192.2 L 109.5 192.6 L 122.2 194.2 L 125.6 169.3 L 130.0 144.7 L 136.3 120.3 L 139.8 95.5 L 145.3 71.0 L 147.6 46.0 L 154.3 69.6 L 158.6 93.6 L 162.4 117.7 L 164.8 142.1 L 169.7 166.0 L 173.0 190.2 L 180.9 167.2 L 191.9 145.4 L 198.4 121.8 L 207.4 145.4 L 217.3 168.7 L 223.8 193.2 L 235.9 199.8 L 249.2 204.0 L 260.9 196.7 L 274.5 194.2 L 287.3 194.4 L 299.9 193.2 L 312.8 195.3 L 325.3 198.6 L 337.7 202.9 L 350.7 204.0 L 363.4 202.4 L 376.1 204.0 L 388.3 198.6 L 401.5 197.1 L 414.4 197.8 L 426.9 201.0 L 439.6 199.4 L 452.3 201.0 L 465.0 201.8 L 477.7 202.5 L 490.1 198.5 L 503.1 196.6 L 513.9 166.7 L 528.5 138.5 L 535.0 161.1 L 543.1 183.1 L 553.9 204.0 L 566.9 204.2 L 579.3 200.1 L 591.6 204.1 L 604.7 204.0 L 617.1 200.1 L 630.1 198.1 L 643.0 197.4 L 655.5 201.0 L 668.4 201.9 L 680.8 198.6 L 693.6 199.6 L 706.2 198.1 L 719.0 197.7 L 731.6 196.6 L 744.3 198.8 L 757.0 201.0 L 769.7 200.6 L 782.4 201.5 L 795.3 201.8 L 807.8 198.6 L 820.4 201.1 L 833.2 201.0 L 845.6 204.9 L 858.6 204.0 L 871.3 202.8 L 884.0 204.0" fill="none" stroke="#4c8bf5" stroke-width="1.3" stroke-opacity="0.45" stroke-linecap="round" stroke-linejoin="round"/>
 <path d="M 46.0 88.8 L 58.2 110.5 L 71.4 131.6 L 81.0 151.3 L 89.2 171.6 L 96.8 192.2 L 109.4 194.2 L 122.2 194.2 L 125.6 169.3 L 130.9 144.8 L 133.3 119.8 L 140.3 95.6 L 143.3 70.7 L 147.6 46.0 L 150.0 70.4 L 154.2 94.4 L 161.2 118.0 L 163.5 142.3 L 167.8 166.4 L 173.0 190.2 L 182.7 167.9 L 188.5 144.1 L 198.4 121.8 L 206.6 145.7 L 217.0 168.8 L 223.8 193.2 L 235.7 200.4 L 249.2 204.0 L 262.5 200.7 L 274.5 194.2 L 287.2 192.8 L 299.9 193.2 L 312.8 195.0 L 325.3 198.6 L 337.9 202.0 L 350.7 204.0 L 363.4 203.2 L 376.1 204.0 L 389.2 202.0 L 401.5 197.1 L 414.0 200.3 L 426.9 201.0 L 439.6 200.9 L 452.3 201.0 L 465.1 199.9 L 477.7 202.5 L 490.7 200.8 L 503.1 196.6 L 515.8 167.6 L 528.5 138.5 L 538.1 159.9 L 543.6 182.9 L 553.9 204.0 L 566.3 200.0 L 579.3 200.1 L 592.2 200.6 L 604.7 204.0 L 617.4 201.1 L 630.1 198.1 L 643.0 197.8 L 655.5 201.0 L 668.3 201.5 L 680.8 198.6 L 693.6 200.2 L 706.2 198.1 L 718.9 196.5 L 731.6 196.6 L 744.6 197.6 L 757.0 201.0 L 769.7 203.2 L 782.4 201.5 L 795.1 199.6 L 807.8 198.6 L 820.5 199.7 L 833.2 201.0 L 846.1 201.0 L 858.6 204.0 L 871.3 205.3 L 884.0 204.0" fill="none" stroke="#316dca" stroke-width="2.2" stroke-linecap="round" stroke-linejoin="round"/>
 <path d="M 46.0 38.0 L 45.7 62.4 L 47.1 86.9 L 46.0 111.3 L 46.4 135.7 L 46.0 160.1 L 45.7 184.6 L 46.0 209.0" fill="none" stroke="#8b949e" stroke-width="1.6" stroke-linecap="round"/>
 <path d="M 40.0 204.0 L 66.4 202.6 L 92.8 202.8 L 119.1 202.8 L 145.5 204.2 L 171.9 204.9 L 198.3 204.0 L 224.6 204.8 L 251.0 203.1 L 277.4 203.4 L 303.8 204.9 L 330.1 202.6 L 356.5 204.0 L 382.9 203.3 L 409.3 202.9 L 435.6 202.6 L 462.0 203.2 L 488.4 204.0 L 514.8 203.7 L 541.1 204.5 L 567.5 203.1 L 593.9 205.3 L 620.3 203.6 L 646.6 205.2 L 673.0 205.1 L 699.4 204.2 L 725.8 204.0 L 752.1 203.0 L 778.5 205.3 L 804.9 202.6 L 831.3 204.0 L 857.6 204.7 L 884.0 204.0" fill="none" stroke="#8b949e" stroke-width="1.6" stroke-linecap="round"/>
<circle cx="46.0" cy="88.8" r="2.6" fill="#316dca"><title>2026-08-26: 234</title></circle>
<circle cx="71.4" cy="131.6" r="2.6" fill="#316dca"><title>2026-08-27: 147</title></circle>
<circle cx="96.8" cy="192.2" r="2.6" fill="#316dca"><title>2026-08-28: 24</title></circle>
<circle cx="122.2" cy="194.2" r="2.6" fill="#316dca"><title>2026-08-29: 20</title></circle>
<circle cx="147.6" cy="46.0" r="2.6" fill="#316dca"><title>2026-08-30: 321</title></circle>
<circle cx="173.0" cy="190.2" r="2.6" fill="#316dca"><title>2026-08-31: 28</title></circle>
<circle cx="198.4" cy="121.8" r="2.6" fill="#316dca"><title>2026-09-01: 167</title></circle>
<circle cx="223.8" cy="193.2" r="2.6" fill="#316dca"><title>2026-09-02: 22</title></circle>
<circle cx="274.5" cy="194.2" r="2.6" fill="#316dca"><title>2026-09-04: 20</title></circle>
<circle cx="299.9" cy="193.2" r="2.6" fill="#316dca"><title>2026-09-05: 22</title></circle>
<circle cx="325.3" cy="198.6" r="2.6" fill="#316dca"><title>2026-09-06: 11</title></circle>
<circle cx="401.5" cy="197.1" r="2.6" fill="#316dca"><title>2026-09-09: 14</title></circle>
<circle cx="426.9" cy="201.0" r="2.6" fill="#316dca"><title>2026-09-10: 6</title></circle>
<circle cx="452.3" cy="201.0" r="2.6" fill="#316dca"><title>2026-09-11: 6</title></circle>
<circle cx="477.7" cy="202.5" r="2.6" fill="#316dca"><title>2026-09-12: 3</title></circle>
<circle cx="503.1" cy="196.6" r="2.6" fill="#316dca"><title>2026-09-13: 15</title></circle>
<circle cx="528.5" cy="138.5" r="2.6" fill="#316dca"><title>2026-09-14: 133</title></circle>
<circle cx="579.3" cy="200.1" r="2.6" fill="#316dca"><title>2026-09-16: 8</title></circle>
<circle cx="630.1" cy="198.1" r="2.6" fill="#316dca"><title>2026-09-18: 12</title></circle>
<circle cx="655.5" cy="201.0" r="2.6" fill="#316dca"><title>2026-09-19: 6</title></circle>
<circle cx="680.8" cy="198.6" r="2.6" fill="#316dca"><title>2026-09-20: 11</title></circle>
<circle cx="706.2" cy="198.1" r="2.6" fill="#316dca"><title>2026-09-21: 12</title></circle>
<circle cx="731.6" cy="196.6" r="2.6" fill="#316dca"><title>2026-09-22: 15</title></circle>
<circle cx="757.0" cy="201.0" r="2.6" fill="#316dca"><title>2026-09-23: 6</title></circle>
<circle cx="782.4" cy="201.5" r="2.6" fill="#316dca"><title>2026-09-24: 5</title></circle>
<circle cx="807.8" cy="198.6" r="2.6" fill="#316dca"><title>2026-09-25: 11</title></circle>
<circle cx="833.2" cy="201.0" r="2.6" fill="#316dca"><title>2026-09-26: 6</title></circle>
<path d="M 175.2 46.0 L 174.3 49.1 L 171.5 50.8 L 171.2 53.5 L 170.2 56.1 L 167.1 58.2 L 163.7 59.7 L 160.1 61.8 L 155.9 61.8 L 151.6 62.8 L 147.6 60.9 L 143.5 61.9 L 139.3 61.6 L 135.0 62.0 L 131.1 59.9 L 128.5 57.9 L 128.3 54.6 L 124.7 53.3 L 121.6 51.2 L 121.7 48.4 L 120.1 46.0 L 120.2 43.1 L 122.0 40.9 L 123.9 38.6 L 125.5 36.1 L 129.0 34.4 L 132.8 33.5 L 136.5 32.4 L 140.3 32.1 L 143.9 31.5 L 147.6 30.5 L 151.8 29.6 L 156.1 29.9 L 160.1 30.4 L 163.5 32.5 L 166.1 34.3 L 167.3 37.2 L 168.6 39.4 L 170.2 41.5 L 172.3 43.9 L 174.8 46.0 M 171.4 51.4 L 170.2 54.3 L 167.1 55.4 L 165.7 58.4 L 162.8 59.9 L 159.1 62.2 L 154.8 61.5 L 150.7 61.0 L 146.7 61.3 L 143.1 59.5 L 139.2 60.2 L 135.4 58.4 L 131.2 58.9 L 128.0 56.6 L 124.1 55.7 L 124.3 52.8 L 122.7 50.4 L 120.4 48.4 L 119.6 45.4 L 122.5 43.2 L 125.3 41.0 L 125.3 38.3 L 126.6 35.9 L 128.6 33.0 L 131.9 31.7 L 136.5 30.3 L 141.0 31.8 L 145.0 32.5 L 148.5 30.3 L 152.6 31.2 L 156.8 30.5 L 159.6 32.6 L 162.9 34.0 L 167.0 34.8 L 170.9 36.3 L 173.0 38.5 L 173.2 41.5 L 173.9 44.0 L 174.1 46.6 L 171.7 48.3 L 171.1 51.3" fill="none" stroke="#e78100" stroke-width="1.6" stroke-linecap="round"/>
 <path d="M 147.6 28.0 C 177.6 4.0, 193.6 6.0, 199.6 16.0" fill="none" stroke="#e78100" stroke-width="1.4" stroke-linecap="round"/>
 <text x="203.6" y="20.0" text-anchor="start" font-family="'Comic Sans MS','Segoe Print','Chalkboard SE','Comic Neue',cursive" font-size="12.5" fill="#e78100">321 on 08-30</text>
 <text x="46" y="230" font-family="'Comic Sans MS','Segoe Print','Chalkboard SE','Comic Neue',cursive" font-size="11" fill="#8b949e">2026-08-26</text>
 <text x="884" y="230" text-anchor="end" font-family="'Comic Sans MS','Segoe Print','Chalkboard SE','Comic Neue',cursive" font-size="11" fill="#8b949e">[object Object] · daily refresh</text>
</svg>
