<svg xmlns="http://www.w3.org/2000/svg" width="900" height="240" viewBox="0 0 900 240" role="img" aria-label="npm downloads per day, hand-drawn line chart">
 <title>pi-wake: npm downloads per day</title>
 <rect width="900" height="240" fill="transparent"/>
 <text x="46" y="24" font-family="'Comic Sans MS','Segoe Print','Chalkboard SE','Comic Neue',cursive" font-size="14.5" fill="#3b4249">npm downloads / day</text>
 <text x="884" y="24" text-anchor="end" font-family="'Comic Sans MS','Segoe Print','Chalkboard SE','Comic Neue',cursive" font-size="12" fill="#8b949e">total 1,016 · 13d</text>
 <path d="M 46.0 125.0 L 72.2 125.1 L 98.4 124.5 L 124.6 125.3 L 150.8 125.7 L 176.9 124.5 L 203.1 124.7 L 229.3 125.9 L 255.5 125.4 L 281.7 125.8 L 307.9 126.0 L 334.1 125.9 L 360.3 124.5 L 386.4 123.9 L 412.6 125.1 L 438.8 125.5 L 465.0 125.6 L 491.2 125.6 L 517.4 124.2 L 543.6 125.9 L 569.8 125.2 L 595.9 124.1 L 622.1 123.9 L 648.3 125.1 L 674.5 126.0 L 700.7 126.1 L 726.9 126.0 L 753.1 125.4 L 779.3 124.2 L 805.4 124.5 L 831.6 124.4 L 857.8 125.4 L 884.0 125.0" fill="none" stroke="#d0d7de" stroke-width="1.1" stroke-dasharray="5 6"/>
 <text x="40" y="129" text-anchor="end" font-family="'Comic Sans MS','Segoe Print','Chalkboard SE','Comic Neue',cursive" font-size="10.5" fill="#8b949e">161</text>
 <text x="40" y="50" text-anchor="end" font-family="'Comic Sans MS','Segoe Print','Chalkboard SE','Comic Neue',cursive" font-size="10.5" fill="#8b949e">321</text>
 <path d="M 46.0 88.8 L 68.7 104.1 L 92.6 117.3 L 115.8 131.6 L 132.2 148.1 L 150.8 161.9 L 168.8 176.3 L 185.7 192.2 L 208.9 194.7 L 232.2 192.9 L 255.5 194.2 L 266.2 169.0 L 277.7 144.3 L 291.4 120.6 L 302.5 95.6 L 312.0 69.9 L 325.3 46.0 L 336.6 70.2 L 349.6 93.6 L 361.3 117.6 L 372.2 142.0 L 382.4 166.7 L 395.2 190.2 L 413.7 174.2 L 430.2 156.2 L 446.6 137.9 L 465.0 121.8 L 482.8 139.3 L 499.8 157.6 L 516.1 176.6 L 534.8 193.2 L 558.1 196.7 L 581.6 199.0 L 604.7 204.0 L 628.2 202.7 L 651.5 199.2 L 674.5 194.2 L 697.8 193.0 L 721.1 195.1 L 744.3 193.2 L 767.6 194.9 L 790.8 198.5 L 814.2 198.6 L 837.6 198.9 L 860.6 203.5 L 884.0 204.0 L 884.0 204 L 46.0 204 Z" fill="#4c8bf5" fill-opacity="0.10" stroke="none"/>
 <path d="M 46.0 88.8 L 69.6 102.5 L 91.2 119.6 L 115.8 131.6 L 132.0 148.2 L 150.3 162.5 L 167.0 178.5 L 185.7 192.2 L 209.0 192.4 L 232.2 195.2 L 255.5 194.2 L 266.5 169.2 L 280.8 145.7 L 290.5 120.1 L 302.2 95.4 L 314.1 70.9 L 325.3 46.0 L 337.3 69.9 L 347.0 94.8 L 362.4 117.1 L 370.3 142.9 L 385.1 165.4 L 395.2 190.2 L 413.0 173.5 L 428.7 154.5 L 448.3 139.7 L 465.0 121.8 L 481.5 140.6 L 501.2 156.2 L 517.7 175.0 L 534.8 193.2 L 558.1 196.9 L 581.7 198.6 L 604.7 204.0 L 627.6 198.2 L 651.4 198.9 L 674.5 194.2 L 697.8 192.3 L 721.0 192.9 L 744.3 193.2 L 767.5 196.3 L 790.8 198.3 L 814.2 198.6 L 837.6 198.4 L 860.8 200.6 L 884.0 204.0" fill="none" stroke="#4c8bf5" stroke-width="1.3" stroke-opacity="0.45" stroke-linecap="round" stroke-linejoin="round"/>
 <path d="M 46.0 88.8 L 68.7 104.1 L 92.6 117.3 L 115.8 131.6 L 132.2 148.1 L 150.8 161.9 L 168.8 176.3 L 185.7 192.2 L 208.9 194.7 L 232.2 192.9 L 255.5 194.2 L 266.2 169.0 L 277.7 144.3 L 291.4 120.6 L 302.5 95.6 L 312.0 69.9 L 325.3 46.0 L 336.6 70.2 L 349.6 93.6 L 361.3 117.6 L 372.2 142.0 L 382.4 166.7 L 395.2 190.2 L 413.7 174.2 L 430.2 156.2 L 446.6 137.9 L 465.0 121.8 L 482.8 139.3 L 499.8 157.6 L 516.1 176.6 L 534.8 193.2 L 558.1 196.7 L 581.6 199.0 L 604.7 204.0 L 628.2 202.7 L 651.5 199.2 L 674.5 194.2 L 697.8 193.0 L 721.1 195.1 L 744.3 193.2 L 767.6 194.9 L 790.8 198.5 L 814.2 198.6 L 837.6 198.9 L 860.6 203.5 L 884.0 204.0" fill="none" stroke="#316dca" stroke-width="2.2" stroke-linecap="round" stroke-linejoin="round"/>
 <path d="M 46.0 38.0 L 46.2 62.4 L 46.3 86.9 L 45.7 111.3 L 46.6 135.7 L 46.7 160.1 L 45.6 184.6 L 46.0 209.0" fill="none" stroke="#8b949e" stroke-width="1.6" stroke-linecap="round"/>
 <path d="M 40.0 204.0 L 66.4 204.8 L 92.8 205.3 L 119.1 203.9 L 145.5 203.8 L 171.9 203.0 L 198.3 204.9 L 224.6 204.0 L 251.0 203.4 L 277.4 203.6 L 303.8 204.2 L 330.1 203.7 L 356.5 204.2 L 382.9 204.8 L 409.3 205.3 L 435.6 205.1 L 462.0 203.8 L 488.4 204.6 L 514.8 202.7 L 541.1 202.9 L 567.5 203.0 L 593.9 203.0 L 620.3 205.0 L 646.6 203.9 L 673.0 203.7 L 699.4 205.4 L 725.8 203.1 L 752.1 205.2 L 778.5 203.6 L 804.9 202.7 L 831.3 203.1 L 857.6 204.7 L 884.0 204.0" fill="none" stroke="#8b949e" stroke-width="1.6" stroke-linecap="round"/>
<circle cx="46.0" cy="88.8" r="2.6" fill="#316dca"><title>2026-08-26: 234</title></circle>
<circle cx="115.8" cy="131.6" r="2.6" fill="#316dca"><title>2026-08-27: 147</title></circle>
<circle cx="185.7" cy="192.2" r="2.6" fill="#316dca"><title>2026-08-28: 24</title></circle>
<circle cx="255.5" cy="194.2" r="2.6" fill="#316dca"><title>2026-08-29: 20</title></circle>
<circle cx="325.3" cy="46.0" r="2.6" fill="#316dca"><title>2026-08-30: 321</title></circle>
<circle cx="395.2" cy="190.2" r="2.6" fill="#316dca"><title>2026-08-31: 28</title></circle>
<circle cx="465.0" cy="121.8" r="2.6" fill="#316dca"><title>2026-09-01: 167</title></circle>
<circle cx="534.8" cy="193.2" r="2.6" fill="#316dca"><title>2026-09-02: 22</title></circle>
<circle cx="674.5" cy="194.2" r="2.6" fill="#316dca"><title>2026-09-04: 20</title></circle>
<circle cx="744.3" cy="193.2" r="2.6" fill="#316dca"><title>2026-09-05: 22</title></circle>
<circle cx="814.2" cy="198.6" r="2.6" fill="#316dca"><title>2026-09-06: 11</title></circle>
<path d="M 352.5 46.0 L 351.9 48.6 L 351.5 51.2 L 349.3 54.4 L 345.5 55.0 L 343.8 58.0 L 340.4 58.8 L 336.7 59.3 L 333.1 60.8 L 328.9 61.2 L 325.3 63.4 L 320.8 64.2 L 316.6 62.6 L 313.2 61.0 L 310.3 58.7 L 306.8 56.9 L 303.0 56.0 L 301.2 53.6 L 302.0 50.7 L 301.1 47.5 L 298.3 46.0 L 299.2 43.3 L 301.0 41.1 L 302.7 38.4 L 305.7 37.2 L 307.7 35.0 L 309.8 32.9 L 313.5 31.9 L 316.8 29.8 L 321.0 28.7 L 325.3 29.5 L 329.4 31.2 L 333.6 30.3 L 337.6 31.3 L 341.5 32.3 L 342.5 35.3 L 345.0 37.2 L 348.4 39.3 L 352.1 40.6 L 352.1 43.3 L 352.6 46.0 M 348.2 51.1 L 346.8 53.4 L 345.7 55.8 L 342.8 58.5 L 338.9 58.4 L 335.3 58.8 L 332.0 60.3 L 328.4 61.9 L 324.4 62.0 L 320.4 62.3 L 317.2 59.7 L 312.7 60.0 L 308.3 59.4 L 305.2 57.3 L 302.0 55.7 L 301.4 53.0 L 300.6 50.3 L 301.1 47.4 L 298.9 45.4 L 301.0 43.3 L 303.0 41.0 L 304.1 38.6 L 305.2 36.3 L 308.4 35.1 L 311.4 33.3 L 314.8 31.8 L 318.3 30.9 L 322.1 28.8 L 326.3 28.8 L 330.7 28.3 L 334.8 30.0 L 338.8 30.7 L 342.1 32.8 L 345.4 33.9 L 346.9 37.0 L 347.9 39.6 L 349.7 41.7 L 350.4 44.1 L 349.6 46.5 L 348.9 48.8 L 348.6 51.2" fill="none" stroke="#e78100" stroke-width="1.6" stroke-linecap="round"/>
 <path d="M 325.3 28.0 C 295.3 4.0, 279.3 6.0, 273.3 16.0" fill="none" stroke="#e78100" stroke-width="1.4" stroke-linecap="round"/>
 <text x="269.3" y="20.0" text-anchor="end" font-family="'Comic Sans MS','Segoe Print','Chalkboard SE','Comic Neue',cursive" font-size="12.5" fill="#e78100">321 on 08-30</text>
 <text x="46" y="230" font-family="'Comic Sans MS','Segoe Print','Chalkboard SE','Comic Neue',cursive" font-size="11" fill="#8b949e">2026-08-26</text>
 <text x="884" y="230" text-anchor="end" font-family="'Comic Sans MS','Segoe Print','Chalkboard SE','Comic Neue',cursive" font-size="11" fill="#8b949e">[object Object] · daily refresh</text>
</svg>
